<?xml version="1.0" encoding="utf-8"?>
<!-- Generator: Adobe Illustrator 17.0.0, SVG Export Plug-In . SVG Version: 6.00 Build 0)  -->
<!DOCTYPE svg PUBLIC "-//W3C//DTD SVG 1.1//EN" "http://www.w3.org/Graphics/SVG/1.1/DTD/svg11.dtd">
<svg version="1.1" id="Layer_1" xmlns="http://www.w3.org/2000/svg" xmlns:xlink="http://www.w3.org/1999/xlink" x="0px" y="0px"
	 width="41.188px" height="41.048px" viewBox="0 0 41.188 41.048" enable-background="new 0 0 41.188 41.048" xml:space="preserve">
<g>
	<path fill="none" d="M-6.771,48.001c0,1.068,0.923,1.934,2.061,1.934h22.353c1.138,0,2.061-0.866,2.061-1.934v-5.803H-6.771V48.001
		z M9.284,14.782c0-2.371,0.374-4.644,1.037-6.774C9.104,7.609,7.81,7.381,6.466,7.381c-3.969,0-7.571,1.851-9.704,4.909
		c-0.087-0.002-0.173-0.003-0.26-0.003c-6.403,0-11.613,4.89-11.613,10.9c0,4.89,3.477,9.118,8.339,10.456v4.685h26.475v-4.684
		c0.037-0.01,0.072-0.024,0.109-0.035C13.555,30.045,9.284,22.956,9.284,14.782z M29.132-1.902c-8.549,0-15.479,7.457-15.479,16.655
		c0,9.198,6.93,16.656,15.479,16.656c8.548,0,15.479-7.458,15.479-16.656C44.611,5.555,37.68-1.902,29.132-1.902z M35.823,17.921
		h-6.562c-0.022,0-0.043-0.006-0.065-0.007c-0.022,0.001-0.042,0.007-0.065,0.007c-0.591,0-1.07-0.516-1.07-1.152V5.01
		c0-0.636,0.479-1.152,1.07-1.152c0.591,0,1.071,0.516,1.071,1.152v10.607h5.621c0.591,0,1.07,0.516,1.07,1.152
		S36.415,17.921,35.823,17.921z"/>
</g>
<g>
	<g>
		<polygon fill-rule="evenodd" clip-rule="evenodd" fill="#3F3F3F" points="41.188,8.253 33.002,0.067 20.723,12.345 8.445,0.067 
			0.259,8.253 12.538,20.531 0.259,32.81 8.445,40.995 20.723,28.717 33.002,40.995 41.188,32.81 28.909,20.531 		"/>
	</g>
</g>
</svg>
